<?xml version="1.0" standalone="no"?>
<!DOCTYPE svg PUBLIC "-//W3C//DTD SVG 20010904//EN"
 "http://www.w3.org/TR/2001/REC-SVG-20010904/DTD/svg10.dtd">
<svg version="1.0" xmlns="http://www.w3.org/2000/svg"
 width="903.000000pt" height="326.000000pt" viewBox="0 0 903.000000 326.000000"
 preserveAspectRatio="xMidYMid meet">

<g transform="translate(0.000000,326.000000) scale(0.100000,-0.100000)"
fill="#000000" stroke="none">
<path d="M5947 2830 c5 -124 8 -504 8 -845 0 -341 -3 -721 -8 -845 l-7 -225
125 0 125 0 -8 165 c-4 91 -7 498 -7 905 0 407 3 814 7 905 l8 165 -125 0
-125 0 7 -225z"/>
<path d="M6737 2830 c5 -124 8 -504 8 -845 0 -341 -3 -721 -8 -845 l-7 -225
125 0 125 0 -8 165 c-4 91 -7 498 -7 905 0 407 3 814 7 905 l8 165 -125 0
-125 0 7 -225z"/>
<path d="M780 2291 c-140 -21 -247 -71 -335 -156 -103 -100 -163 -229 -191
-410 -40 -262 14 -478 160 -633 125 -132 268 -191 481 -199 156 -6 248 12 379
76 121 60 134 73 144 154 5 37 6 70 2 72 -4 2 -18 -7 -31 -21 -40 -42 -152
-112 -225 -140 -91 -35 -222 -43 -313 -20 -137 35 -247 127 -307 257 -49 105
-73 320 -37 333 9 4 230 6 492 6 l476 -1 3 100 c8 279 -132 484 -382 560 -77
24 -230 34 -316 22z m244 -107 c74 -27 148 -108 185 -208 20 -53 50 -250 40
-260 -5 -5 -367 -10 -582 -8 l-169 2 7 53 c9 67 41 169 71 228 32 65 116 154
169 179 82 40 189 45 279 14z"/>
<path d="M2050 2289 c-124 -21 -261 -113 -311 -210 -48 -96 -62 -231 -33 -330
12 -42 28 -66 74 -111 70 -69 120 -95 275 -143 239 -74 305 -130 305 -259 0
-199 -225 -313 -427 -215 -51 25 -149 111 -158 140 -4 10 -15 19 -25 19 -14 0
-21 -10 -25 -37 -4 -21 -15 -65 -26 -97 -10 -33 -19 -63 -19 -68 0 -14 80 -49
157 -69 91 -23 281 -26 358 -5 234 62 379 260 353 482 -9 79 -35 131 -93 182
-59 52 -112 76 -268 124 -151 45 -192 65 -246 115 -52 50 -67 106 -53 187 22
116 98 184 217 194 48 3 77 0 112 -13 55 -21 126 -83 143 -125 22 -53 45 -39
70 43 12 39 28 84 36 98 l13 27 -87 31 c-141 51 -220 60 -342 40z"/>
<path d="M3469 2289 c-74 -11 -128 -30 -195 -70 -64 -38 -145 -123 -175 -180
-11 -22 -22 -39 -26 -39 -7 0 4 199 13 240 l5 25 -131 0 -131 0 5 -25 c3 -14
11 -252 17 -528 9 -379 9 -627 0 -1000 -6 -274 -14 -506 -17 -518 -5 -20 -2
-20 126 -20 l132 1 -6 35 c-3 19 -8 240 -11 490 l-6 455 31 -48 c94 -146 232
-217 420 -217 335 1 575 240 609 608 31 342 -94 629 -320 737 -120 57 -218 72
-340 54z m148 -134 c59 -17 134 -79 175 -145 16 -25 40 -81 55 -125 23 -70 27
-101 30 -245 6 -196 -14 -317 -70 -434 -47 -97 -95 -149 -174 -188 -61 -30
-74 -32 -157 -32 -197 2 -319 101 -377 306 -21 74 -24 103 -24 273 0 154 4
203 19 260 50 187 164 314 310 345 52 11 148 4 213 -15z"/>
<path d="M4804 2291 c-238 -38 -407 -191 -459 -415 -10 -43 -15 -102 -13 -167
l3 -100 476 1 c262 0 483 -2 492 -6 36 -13 12 -228 -37 -333 -129 -280 -471
-356 -755 -167 -36 24 -77 56 -90 70 -13 14 -27 23 -31 21 -4 -2 -3 -35 2 -72
10 -81 23 -94 144 -154 131 -64 223 -82 379 -76 103 3 146 10 210 30 275 90
445 332 445 634 0 377 -169 643 -457 717 -72 19 -239 28 -309 17z m231 -108
c61 -20 160 -114 198 -188 31 -62 62 -163 72 -232 l7 -53 -169 -2 c-215 -2
-577 3 -582 8 -10 10 20 207 40 260 73 194 233 270 434 207z"/>
<path d="M7908 2284 c-378 -68 -584 -362 -547 -781 10 -123 24 -175 71 -273
79 -165 241 -287 430 -325 158 -31 365 -14 502 41 121 48 237 158 302 286 51
100 69 191 69 353 0 177 -10 224 -72 355 -93 194 -270 316 -508 350 -91 13
-153 11 -247 -6z m267 -96 c106 -26 204 -121 252 -244 44 -112 57 -188 57
-354 1 -179 -19 -282 -74 -397 -79 -161 -206 -232 -396 -220 -195 12 -323 132
-380 357 -15 61 -19 111 -19 265 1 207 10 260 64 379 85 186 277 269 496 214z"/>
<path d="M4460 430 c-11 -11 -20 -26 -20 -34 0 -8 -8 -22 -17 -32 -13 -13 -14
-19 -5 -22 8 -2 12 -27 12 -73 0 -66 1 -69 24 -69 23 0 23 2 18 70 -4 60 -2
70 12 70 23 0 20 17 -4 23 -31 8 -27 47 5 47 18 0 25 5 25 20 0 11 -7 20 -15
20 -8 0 -24 -9 -35 -20z"/>
<path d="M4890 430 c-11 -11 -20 -26 -20 -34 0 -8 -8 -22 -17 -32 -13 -13 -14
-19 -5 -22 8 -2 12 -27 12 -73 0 -66 1 -69 24 -69 23 0 23 2 18 70 -4 60 -2
70 12 70 23 0 20 17 -4 23 -31 8 -27 47 5 47 18 0 25 5 25 20 0 11 -7 20 -15
20 -8 0 -24 -9 -35 -20z"/>
<path d="M6690 325 c0 -125 0 -125 24 -125 22 0 24 3 22 54 -1 58 12 83 38 73
12 -5 16 -21 16 -67 0 -56 2 -60 23 -60 21 0 23 4 22 64 -1 37 -7 71 -14 80
-15 18 -56 21 -66 6 -3 -5 -11 -10 -16 -10 -7 0 -8 20 -4 55 7 54 7 55 -19 55
l-26 0 0 -125z"/>
<path d="M3441 336 c-39 -41 -25 -119 23 -132 33 -8 79 -1 83 12 2 7 -6 10
-22 7 -37 -8 -55 13 -55 63 0 52 27 76 55 47 14 -13 18 -14 25 -2 23 36 -75
41 -109 5z"/>
<path d="M3939 350 c-40 -23 -48 -100 -13 -134 24 -24 89 -21 114 6 28 30 27
91 -2 118 -23 21 -71 26 -99 10z m59 -12 c14 -14 16 -97 2 -118 -28 -45 -67
60 -40 110 12 23 21 25 38 8z"/>
<path d="M5306 341 c-50 -55 -18 -141 54 -141 20 0 42 6 49 13 8 11 4 13 -21
9 -22 -3 -35 0 -45 14 -24 33 -16 44 32 44 41 0 45 2 45 23 0 51 -78 77 -114
38z m74 -32 c0 -14 -7 -19 -25 -19 -27 0 -35 26 -13 48 15 15 38 -3 38 -29z"/>
<path d="M5796 341 c-50 -55 -18 -141 54 -141 20 0 42 6 49 13 8 11 4 13 -21
9 -22 -3 -35 0 -45 14 -24 33 -16 44 32 44 41 0 45 2 45 23 0 51 -78 77 -114
38z m74 -32 c0 -14 -7 -19 -25 -19 -27 0 -35 26 -13 48 15 15 38 -3 38 -29z"/>
<path d="M7229 350 c-40 -23 -48 -100 -13 -134 24 -24 89 -21 114 6 28 30 27
91 -2 118 -23 21 -71 26 -99 10z m59 -12 c14 -14 16 -97 2 -118 -28 -45 -67
60 -40 110 12 23 21 25 38 8z"/>
<path d="M7710 292 c0 -40 5 -73 12 -80 15 -15 61 -15 76 0 9 9 12 9 12 0 0
-7 10 -12 23 -12 21 0 22 3 20 77 -1 71 -4 78 -22 81 -19 3 -21 -2 -21 -56 0
-43 -5 -63 -16 -73 -27 -23 -47 15 -41 79 5 50 5 52 -19 52 -23 0 -24 -3 -24
-68z"/>
<path d="M8225 344 c-24 -24 -15 -56 22 -79 32 -19 40 -44 17 -52 -7 -2 -19 4
-28 13 -19 19 -31 13 -23 -11 8 -20 71 -20 91 1 9 8 16 23 16 33 0 19 -30 51
-47 51 -6 0 -16 6 -22 14 -19 22 12 41 33 20 19 -19 31 -13 23 11 -8 20 -61
20 -82 -1z"/>
<path d="M8696 341 c-50 -55 -18 -141 54 -141 20 0 42 6 49 13 8 11 4 13 -21
9 -22 -3 -35 0 -45 14 -24 33 -16 44 32 44 41 0 45 2 45 23 0 51 -78 77 -114
38z m74 -32 c0 -14 -7 -19 -25 -19 -27 0 -35 26 -13 48 15 15 38 -3 38 -29z"/>
<path d="M264 256 c-3 -8 -4 -31 -2 -52 l3 -39 1188 -3 1187 -2 0 55 0 55
-1185 0 c-1005 0 -1186 -2 -1191 -14z"/>
</g>
</svg>
