<?xml version="1.0" standalone="no"?>
<!DOCTYPE svg PUBLIC "-//W3C//DTD SVG 20010904//EN"
 "http://www.w3.org/TR/2001/REC-SVG-20010904/DTD/svg10.dtd">
<svg version="1.0" xmlns="http://www.w3.org/2000/svg"
 width="1889.000000pt" height="224.000000pt" viewBox="0 0 1889.000000 224.000000"
 preserveAspectRatio="xMidYMid meet">

<g transform="translate(0.000000,224.000000) scale(0.100000,-0.100000)"
fill="#000000" stroke="none">
<path d="M7237 1803 c-33 -38 -22 -94 24 -113 27 -11 33 -11 57 7 35 26 41 74
13 102 -26 26 -72 27 -94 4z"/>
<path d="M7500 1793 c-36 -46 -8 -106 49 -106 65 0 94 68 48 111 -32 30 -71
28 -97 -5z"/>
<path d="M4225 1160 l0 -510 60 0 60 0 -3 212 c-4 234 2 269 49 322 60 68 182
70 233 3 42 -54 49 -111 41 -334 l-7 -203 56 0 56 0 0 248 0 248 -27 55 c-38
74 -91 103 -188 103 -59 0 -78 -4 -117 -27 -25 -14 -58 -41 -72 -58 l-27 -31
3 241 3 241 -60 0 -60 0 0 -510z"/>
<path d="M5022 1577 c-12 -13 -22 -33 -22 -46 0 -28 42 -71 70 -71 26 0 70 43
70 68 0 11 -9 31 -21 46 -26 33 -68 34 -97 3z"/>
<path d="M7273 1585 c-221 -48 -363 -231 -363 -467 0 -144 38 -249 125 -346
134 -149 449 -187 661 -79 207 105 295 416 182 647 -41 85 -127 171 -204 205
-119 53 -271 68 -401 40z m309 -72 c142 -68 208 -192 208 -397 0 -208 -67
-338 -209 -405 -50 -23 -68 -26 -166 -26 -137 0 -191 21 -264 101 -172 188
-135 593 65 710 107 63 254 70 366 17z"/>
<path d="M1085 1115 l0 -465 65 0 65 0 -3 231 -3 231 173 -3 173 -4 0 38 0 38
-168 -7 c-140 -6 -170 -5 -178 7 -10 16 -12 209 -2 288 l6 53 151 -6 c83 -4
167 -9 187 -12 l35 -5 0 40 -1 41 -250 0 -250 0 0 -465z"/>
<path d="M9245 1115 l0 -465 170 0 c224 0 294 19 369 96 82 84 88 242 13 322
-31 34 -88 61 -149 70 -39 7 -48 11 -33 16 58 20 129 62 155 92 68 78 65 204
-7 271 -55 52 -110 63 -327 63 l-191 0 0 -465z m373 392 c63 -34 94 -117 73
-197 -24 -87 -98 -133 -238 -145 l-83 -6 0 179 c0 98 3 182 8 186 14 15 205 1
240 -17z m-21 -412 c53 -16 99 -54 115 -95 15 -39 12 -132 -6 -175 -42 -99
-128 -140 -268 -128 l-68 6 0 203 0 204 88 0 c49 0 111 -7 139 -15z"/>
<path d="M14315 1115 l0 -465 65 0 65 0 -3 231 -3 231 173 -3 173 -4 0 38 0
38 -168 -7 c-140 -6 -170 -5 -178 7 -10 16 -12 209 -2 288 l6 53 151 -6 c83
-4 167 -9 187 -12 l35 -5 0 40 -1 41 -250 0 -250 0 0 -465z"/>
<path d="M1922 1294 c-31 -16 -70 -54 -104 -104 -17 -25 -17 -24 -17 38 l-1
62 -52 0 -53 0 0 -320 0 -320 53 0 52 0 0 203 c0 116 5 219 11 242 6 21 26 54
45 73 31 31 38 34 81 30 27 -2 55 -6 63 -9 12 -3 15 7 15 56 0 59 0 60 -30 63
-16 1 -45 -5 -63 -14z"/>
<path d="M2290 1300 c-48 -10 -87 -27 -121 -51 -22 -16 -29 -28 -29 -55 0 -40
6 -42 31 -10 32 40 106 69 166 64 57 -5 92 -29 119 -80 18 -35 18 -122 0 -137
-8 -7 -67 -23 -132 -37 -192 -41 -239 -78 -239 -192 0 -53 5 -73 22 -98 62
-86 228 -91 325 -9 33 28 48 32 48 11 0 -40 82 -67 148 -50 31 9 28 32 -5 36
-49 5 -54 31 -51 263 2 163 0 216 -11 235 -51 94 -152 136 -271 110z m180
-415 c0 -110 -10 -132 -75 -170 -99 -59 -205 -7 -205 100 0 77 48 119 170 146
119 27 110 33 110 -76z"/>
<path d="M3084 1301 c-43 -11 -98 -46 -129 -82 l-25 -31 0 51 0 51 -57 0 -58
0 0 -320 0 -320 60 0 60 0 -3 212 c-4 234 2 269 49 322 60 68 182 70 233 3 42
-54 49 -111 41 -334 l-7 -203 56 0 56 0 0 248 0 248 -27 55 c-21 39 -39 60
-69 76 -45 25 -132 36 -180 24z"/>
<path d="M3780 1297 c-165 -38 -251 -144 -258 -317 -5 -104 21 -182 80 -246
97 -106 277 -128 420 -52 53 28 58 34 58 65 l0 34 -33 -25 c-114 -87 -259 -89
-339 -5 -52 55 -71 126 -66 244 7 171 74 256 208 263 77 5 105 -6 163 -64 20
-20 38 -35 40 -33 2 2 8 22 15 43 14 50 6 61 -61 81 -72 21 -164 26 -227 12z"/>
<path d="M5485 1301 c-85 -24 -136 -71 -155 -143 -31 -115 19 -186 165 -232
106 -34 145 -66 145 -120 0 -19 -5 -47 -12 -61 -14 -32 -75 -65 -118 -65 -38
0 -97 29 -129 64 -14 14 -28 26 -32 26 -9 0 -31 -89 -25 -99 10 -16 102 -35
168 -34 154 1 261 112 238 246 -12 68 -50 96 -199 147 -85 29 -113 57 -113
114 0 48 25 84 70 103 49 21 101 5 141 -44 27 -33 31 -35 37 -17 4 10 13 33
20 51 12 31 12 32 -29 48 -50 20 -130 27 -172 16z"/>
<path d="M6073 1300 c-141 -30 -222 -139 -231 -314 -3 -77 -1 -100 18 -150 70
-183 293 -255 482 -154 53 28 58 34 58 65 l0 34 -33 -25 c-183 -140 -407 -43
-407 176 l0 48 236 0 237 0 -5 73 c-8 114 -54 184 -150 227 -54 24 -145 33
-205 20z m163 -59 c38 -23 71 -88 80 -158 l7 -53 -84 -2 c-86 -1 -272 3 -276
6 -2 2 4 29 13 61 17 66 51 117 98 146 41 25 121 25 162 0z"/>
<path d="M8354 1301 c-43 -11 -98 -46 -129 -82 l-25 -31 0 51 0 51 -57 0 -58
0 0 -320 0 -320 60 0 60 0 -3 212 c-4 234 2 269 49 322 60 68 182 70 233 3 42
-54 49 -111 41 -334 l-7 -203 56 0 56 0 0 248 0 248 -27 55 c-21 39 -39 60
-69 76 -45 25 -132 36 -180 24z"/>
<path d="M10220 1300 c-48 -10 -87 -27 -121 -51 -22 -16 -29 -28 -29 -55 0
-40 6 -42 31 -10 32 40 106 69 166 64 57 -5 92 -29 119 -80 18 -35 18 -122 0
-137 -8 -7 -67 -23 -132 -37 -192 -41 -239 -78 -239 -192 0 -53 5 -73 22 -98
62 -86 228 -91 325 -9 33 28 48 32 48 11 0 -40 82 -67 148 -50 31 9 28 32 -5
36 -49 5 -54 31 -51 263 2 163 0 216 -11 235 -51 94 -152 136 -271 110z m180
-415 c0 -110 -10 -132 -75 -170 -99 -59 -205 -7 -205 100 0 77 48 119 170 146
119 27 110 33 110 -76z"/>
<path d="M10855 1301 c-85 -24 -136 -71 -155 -143 -31 -115 19 -186 165 -232
106 -34 145 -66 145 -120 0 -19 -5 -47 -12 -61 -14 -32 -75 -65 -118 -65 -38
0 -97 29 -129 64 -14 14 -28 26 -32 26 -9 0 -31 -89 -25 -99 6 -9 72 -27 133
-36 l42 -7 -15 -40 c-8 -22 -14 -42 -14 -43 0 -2 18 -1 40 2 70 10 116 -41 73
-79 -28 -24 -55 -29 -106 -19 -42 7 -49 6 -58 -10 -8 -16 -5 -21 16 -29 45
-17 142 -12 184 9 64 33 78 105 29 151 -20 19 -48 25 -90 22 -18 -2 -23 15
-10 33 4 6 32 23 63 38 150 72 165 271 25 329 -17 7 -64 24 -105 38 -85 29
-113 57 -113 114 0 48 25 84 70 103 49 21 101 5 141 -44 27 -33 31 -35 37 -17
4 10 13 33 20 51 12 31 12 32 -29 48 -50 20 -130 27 -172 16z"/>
<path d="M12932 1294 c-31 -16 -70 -54 -104 -104 -17 -25 -17 -24 -17 38 l-1
62 -52 0 -53 0 0 -320 0 -320 53 0 52 0 0 203 c0 116 5 219 11 242 6 21 26 54
45 73 31 31 38 34 81 30 27 -2 55 -6 63 -9 12 -3 15 7 15 56 0 59 0 60 -30 63
-16 1 -45 -5 -63 -14z"/>
<path d="M15114 1300 c-157 -33 -244 -142 -252 -315 -5 -121 19 -189 93 -261
63 -62 126 -86 229 -87 107 0 180 26 242 88 65 65 89 129 89 240 0 136 -39
222 -129 282 -74 51 -184 72 -272 53z m159 -54 c42 -18 71 -50 99 -111 30 -68
33 -244 4 -320 -40 -108 -127 -158 -232 -135 -63 14 -100 45 -132 110 -25 51
-27 65 -27 175 0 75 5 134 14 158 17 48 66 106 106 123 40 17 127 17 168 0z"/>
<path d="M15902 1294 c-31 -16 -70 -54 -104 -104 -17 -25 -17 -24 -17 38 l-1
62 -52 0 -53 0 0 -320 0 -320 53 0 52 0 0 203 c0 116 5 219 11 242 6 21 26 54
45 73 31 31 38 34 81 30 27 -2 55 -6 63 -9 12 -3 15 7 15 56 0 59 0 60 -30 63
-16 1 -45 -5 -63 -14z"/>
<path d="M16365 1295 c-36 -9 -61 -25 -92 -58 l-43 -46 0 50 0 49 -53 0 -52 0
0 -320 0 -320 55 0 55 0 0 233 c0 225 1 233 23 273 42 73 121 99 196 65 78
-34 81 -48 80 -328 l-1 -243 56 0 56 0 0 238 c0 206 2 241 17 269 26 46 80 76
141 76 73 1 111 -22 132 -78 16 -39 17 -74 13 -275 l-5 -230 56 0 56 0 0 263
c0 276 -1 283 -49 335 -47 52 -132 72 -218 52 -42 -10 -63 -24 -105 -66 l-53
-53 -14 28 c-26 49 -122 102 -181 100 -11 0 -42 -6 -70 -14z"/>
<path d="M5015 970 l0 -320 55 0 55 0 0 320 0 320 -55 0 -55 0 0 -320z"/>
<path d="M11214 1238 c13 -29 72 -174 132 -321 l107 -268 44 3 44 3 58 145
c32 80 87 208 121 285 34 77 69 155 76 173 l14 32 -42 0 -43 0 -57 -159 c-62
-170 -140 -361 -148 -361 -8 0 -105 241 -156 388 l-46 132 -64 0 -64 0 24 -52z"/>
<path d="M11948 1123 c-5 -292 -3 -335 20 -379 37 -73 99 -107 197 -106 80 0
136 24 186 81 l42 46 -5 -57 -5 -58 51 0 51 0 2 320 1 320 -54 0 -54 0 0 -212
c0 -118 -5 -230 -11 -251 -39 -143 -235 -172 -301 -44 -20 39 -21 54 -20 242
2 110 5 215 8 233 l6 32 -56 0 -56 0 -2 -167z"/>
<path d="M13158 1123 c-5 -292 -3 -335 20 -379 37 -73 99 -107 197 -106 80 0
136 24 186 81 l42 46 -5 -57 -5 -58 51 0 51 0 2 320 1 320 -54 0 -54 0 0 -212
c0 -118 -5 -230 -11 -251 -39 -143 -235 -172 -301 -44 -20 39 -21 54 -20 242
2 110 5 215 8 233 l6 32 -56 0 -56 0 -2 -167z"/>
<path d="M17258 1123 c-5 -292 -3 -335 20 -379 37 -73 99 -107 197 -106 80 0
136 24 186 81 l42 46 -5 -57 -5 -58 51 0 51 0 2 320 1 320 -54 0 -54 0 0 -212
c0 -118 -5 -230 -11 -251 -39 -143 -235 -172 -301 -44 -20 39 -21 54 -20 242
2 110 5 215 8 233 l6 32 -56 0 -56 0 -2 -167z"/>
</g>
</svg>
