<?xml version="1.0" standalone="no"?>
<!DOCTYPE svg PUBLIC "-//W3C//DTD SVG 20010904//EN"
 "http://www.w3.org/TR/2001/REC-SVG-20010904/DTD/svg10.dtd">
<svg version="1.0" xmlns="http://www.w3.org/2000/svg"
 width="1362.000000pt" height="203.000000pt" viewBox="0 0 1362.000000 203.000000"
 preserveAspectRatio="xMidYMid meet">

<g transform="translate(0.000000,203.000000) scale(0.100000,-0.100000)"
fill="#000000" stroke="none">
<path d="M4485 1419 c-17 -4 -45 -24 -64 -43 -35 -36 -81 -147 -81 -196 0 -28
-3 -30 -35 -30 -28 0 -35 -4 -35 -20 0 -16 7 -20 36 -20 l37 0 -8 -210 -7
-210 41 0 41 0 0 210 0 210 50 0 c43 0 50 3 50 20 0 17 -7 20 -49 20 -42 0
-49 3 -55 23 -8 29 -7 106 0 135 9 32 53 52 98 45 l37 -6 -3 38 c-3 43 -10 47
-53 34z"/>
<path d="M4755 1419 c-17 -4 -45 -24 -64 -43 -35 -36 -81 -147 -81 -196 0 -28
-3 -30 -35 -30 -28 0 -35 -4 -35 -20 0 -16 7 -20 36 -20 l37 0 -8 -210 -7
-210 41 0 41 0 0 210 0 210 50 0 c43 0 50 3 50 20 0 17 -7 20 -49 20 -42 0
-49 3 -55 23 -8 29 -7 106 0 135 9 32 53 52 98 45 l37 -6 -3 38 c-3 43 -10 47
-53 34z"/>
<path d="M9693 1419 c-17 -5 -47 -27 -66 -49 -34 -41 -77 -148 -77 -195 0 -22
-4 -25 -35 -25 -28 0 -35 -4 -35 -20 0 -16 7 -20 37 -20 l36 0 -6 -210 -7
-210 40 0 40 0 0 210 0 210 50 0 c43 0 50 3 50 20 0 17 -7 20 -49 20 -46 0
-49 1 -55 31 -14 73 -7 119 23 150 32 31 45 34 86 19 26 -10 26 -9 23 32 -3
46 -9 50 -55 37z"/>
<path d="M9835 1055 l0 -365 40 0 40 0 0 365 0 365 -40 0 -40 0 0 -365z"/>
<path d="M664 1359 c-19 -24 -116 -192 -125 -217 -19 -51 40 -73 65 -24 8 15
28 73 46 130 31 100 36 139 14 111z"/>
<path d="M778 1272 c-79 -135 -84 -148 -68 -167 7 -9 23 -15 34 -13 17 2 29
25 63 123 65 188 57 204 -29 57z"/>
<path d="M3350 1356 c-143 -41 -230 -144 -245 -291 -17 -156 55 -296 182 -356
65 -31 252 -34 326 -6 26 10 47 24 47 30 0 7 3 23 7 36 l6 23 -43 -27 c-158
-100 -335 -58 -403 94 -28 63 -35 208 -13 283 35 121 121 188 242 188 69 0
116 -16 163 -56 18 -15 33 -25 35 -23 1 2 7 20 13 40 l10 37 -51 17 c-67 22
-217 29 -276 11z"/>
<path d="M11342 1358 c-20 -20 -14 -66 9 -79 33 -17 69 3 69 39 0 33 -16 52
-45 52 -12 0 -26 -5 -33 -12z"/>
<path d="M12738 1353 c-12 -15 -88 -236 -88 -257 0 -24 26 9 84 108 67 116 78
149 50 160 -24 9 -30 8 -46 -11z"/>
<path d="M12896 1338 c-28 -67 -79 -239 -72 -245 8 -8 4 -14 75 107 69 118 80
148 60 161 -28 17 -50 9 -63 -23z"/>
<path d="M945 1343 c2 -7 54 -97 116 -200 l111 -188 -4 -132 -5 -133 46 0 46
0 -3 141 -3 140 37 67 c20 37 72 123 115 190 44 68 79 125 79 125 0 1 -16 2
-35 2 -35 0 -36 -2 -99 -120 -35 -66 -77 -141 -93 -167 l-30 -47 -21 37 c-11
20 -52 96 -91 167 l-71 130 -50 0 c-36 0 -49 -4 -45 -12z"/>
<path d="M6255 1343 c2 -7 54 -97 116 -200 l111 -188 -4 -132 -5 -133 46 0 46
0 -3 141 -3 140 37 67 c20 37 72 123 115 190 44 68 79 125 79 125 0 1 -16 2
-35 2 -35 0 -36 -2 -99 -120 -35 -66 -77 -141 -93 -167 l-30 -47 -21 37 c-11
20 -52 96 -91 167 l-71 130 -50 0 c-36 0 -49 -4 -45 -12z"/>
<path d="M8463 1023 l0 -333 44 0 43 0 0 160 c0 146 2 160 18 160 18 0 88 -80
198 -227 l69 -93 53 0 c41 0 51 3 45 13 -4 7 -61 79 -127 160 -65 81 -117 149
-115 151 2 1 26 10 52 20 92 34 137 91 137 171 0 59 -22 97 -73 126 -37 20
-55 23 -192 24 l-152 1 0 -333z m284 271 c15 -11 35 -39 43 -62 13 -38 12 -45
-6 -89 -26 -64 -80 -93 -171 -93 l-63 0 0 136 0 136 84 -3 c66 -3 91 -9 113
-25z"/>
<path d="M11083 1264 c-32 -13 -33 -17 -33 -69 0 -54 0 -55 -30 -55 -23 0 -30
-4 -30 -20 0 -16 7 -20 30 -20 l30 0 0 -177 c0 -170 1 -179 23 -206 17 -22 34
-30 69 -34 52 -6 98 2 98 17 0 6 -17 10 -38 10 -71 0 -77 16 -80 216 l-3 174
55 0 c49 0 56 2 56 20 0 17 -7 20 -50 20 l-50 0 0 70 c0 39 -3 70 -7 69 -5 0
-23 -7 -40 -15z"/>
<path d="M1580 1151 c-110 -34 -162 -108 -162 -232 0 -158 99 -249 258 -236
110 8 181 68 204 172 29 131 -36 260 -149 294 -43 12 -113 13 -151 2z m136
-37 c24 -11 41 -32 60 -70 24 -49 26 -62 22 -142 -7 -135 -51 -192 -147 -192
-58 0 -103 29 -127 82 -27 61 -26 210 2 259 42 71 118 97 190 63z"/>
<path d="M2688 1144 c-15 -8 -39 -31 -53 -52 l-25 -37 0 48 0 47 -37 0 -38 0
0 -230 0 -230 38 0 37 0 0 145 c0 164 12 210 61 239 23 14 36 16 58 8 27 -10
29 -8 35 20 3 17 6 37 6 44 0 19 -47 17 -82 -2z"/>
<path d="M3910 1151 c-110 -34 -162 -108 -162 -232 0 -158 99 -249 258 -236
110 8 181 68 204 172 29 131 -36 260 -149 294 -43 12 -113 13 -151 2z m136
-37 c24 -11 41 -32 60 -70 24 -49 26 -62 22 -142 -7 -135 -51 -192 -147 -192
-58 0 -103 29 -127 82 -27 61 -26 210 2 259 42 71 118 97 190 63z"/>
<path d="M4976 1153 c-89 -23 -147 -116 -148 -235 0 -151 87 -238 238 -238 65
0 157 44 162 78 3 22 -12 30 -23 12 -4 -6 -24 -19 -45 -30 -54 -28 -127 -26
-171 3 -40 26 -79 97 -79 143 0 42 19 47 195 42 l140 -3 3 29 c9 79 -54 176
-127 196 -37 10 -111 12 -145 3z m141 -45 c22 -18 53 -87 53 -120 l0 -28 -129
0 -129 0 8 33 c16 69 47 113 90 130 23 10 89 0 107 -15z"/>
<path d="M5466 1153 c-89 -23 -147 -116 -148 -235 0 -151 87 -238 238 -238 65
0 157 44 162 78 3 22 -12 30 -23 12 -4 -6 -24 -19 -45 -30 -54 -28 -127 -26
-171 3 -40 26 -79 97 -79 143 0 42 19 47 195 42 l140 -3 3 29 c9 79 -54 176
-127 196 -37 10 -111 12 -145 3z m141 -45 c22 -18 53 -87 53 -120 l0 -28 -129
0 -129 0 8 33 c16 69 47 113 90 130 23 10 89 0 107 -15z"/>
<path d="M6890 1151 c-110 -34 -162 -108 -162 -232 0 -158 99 -249 258 -236
110 8 181 68 204 172 29 131 -36 260 -149 294 -43 12 -113 13 -151 2z m136
-37 c24 -11 41 -32 60 -70 24 -49 26 -62 22 -142 -7 -135 -51 -192 -147 -192
-58 0 -103 29 -127 82 -27 61 -26 210 2 259 42 71 118 97 190 63z"/>
<path d="M7998 1144 c-15 -8 -39 -31 -53 -52 l-25 -37 0 48 0 47 -37 0 -38 0
0 -230 0 -230 38 0 37 0 0 145 c0 164 12 210 61 239 23 14 36 16 58 8 27 -10
29 -8 35 20 3 17 6 37 6 44 0 19 -47 17 -82 -2z"/>
<path d="M9146 1153 c-89 -23 -147 -116 -148 -235 0 -151 87 -238 238 -238 65
0 157 44 162 78 3 22 -12 30 -23 12 -4 -6 -24 -19 -45 -30 -54 -28 -127 -26
-171 3 -40 26 -79 97 -79 143 0 42 19 47 195 42 l140 -3 3 29 c9 79 -54 176
-127 196 -37 10 -111 12 -145 3z m141 -45 c22 -18 53 -87 53 -120 l0 -28 -129
0 -129 0 8 33 c16 69 47 113 90 130 23 10 89 0 107 -15z"/>
<path d="M10176 1153 c-89 -23 -147 -116 -148 -235 0 -151 87 -238 238 -238
65 0 157 44 162 78 3 22 -12 30 -23 12 -4 -6 -24 -19 -45 -30 -54 -28 -127
-26 -171 3 -40 26 -79 97 -79 143 0 42 19 47 195 42 l140 -3 3 29 c9 79 -54
176 -127 196 -37 10 -111 12 -145 3z m141 -45 c22 -18 53 -87 53 -120 l0 -28
-129 0 -129 0 8 33 c16 69 47 113 90 130 23 10 89 0 107 -15z"/>
<path d="M10677 1146 c-58 -21 -108 -65 -128 -112 -56 -126 -20 -265 84 -325
35 -20 55 -24 122 -24 95 0 159 27 167 70 5 25 -5 34 -18 14 -12 -21 -89 -49
-134 -49 -106 0 -160 68 -160 200 0 51 6 88 19 116 45 99 156 123 237 52 19
-17 36 -29 37 -27 2 2 8 17 15 32 12 27 11 29 -25 44 -52 22 -168 27 -216 9z"/>
<path d="M11710 1151 c-110 -34 -162 -108 -162 -232 0 -158 99 -249 258 -236
110 8 181 68 204 172 29 131 -36 260 -149 294 -43 12 -113 13 -151 2z m136
-37 c24 -11 41 -32 60 -70 24 -49 26 -62 22 -142 -7 -135 -51 -192 -147 -192
-58 0 -103 29 -127 82 -27 61 -26 210 2 259 42 71 118 97 190 63z"/>
<path d="M12277 1140 c-20 -11 -43 -29 -50 -40 -18 -30 -26 -24 -20 15 l6 35
-44 0 -44 0 0 -230 0 -230 42 0 41 0 -1 163 c-2 138 1 167 16 194 31 58 116
82 165 47 45 -32 52 -62 52 -239 l0 -165 38 0 37 0 0 183 c0 199 -6 226 -61
262 -42 27 -131 30 -177 5z"/>
<path d="M1998 1023 c-4 -199 -1 -240 19 -275 52 -89 202 -91 274 -5 l18 22 1
-37 c0 -37 1 -38 35 -38 l35 0 0 169 c0 92 3 196 6 230 l7 61 -42 0 -41 0 0
-146 c0 -165 -10 -214 -53 -250 -53 -44 -152 -24 -177 36 -7 17 -10 89 -8 193
l3 167 -37 0 -38 0 -2 -127z"/>
<path d="M7308 1023 c-4 -199 -1 -240 19 -275 52 -89 202 -91 274 -5 l18 22 1
-37 c0 -37 1 -38 35 -38 l35 0 0 169 c0 92 3 196 6 230 l7 61 -42 0 -41 0 0
-146 c0 -165 -10 -214 -53 -250 -53 -44 -152 -24 -177 36 -7 17 -10 89 -8 193
l3 167 -37 0 -38 0 -2 -127z"/>
<path d="M11335 920 l0 -230 40 0 40 0 0 230 0 230 -40 0 -40 0 0 -230z"/>
<path d="M5891 786 c-19 -22 -92 -249 -83 -258 10 -10 142 212 142 239 0 31
-39 44 -59 19z"/>
</g>
</svg>
